HIERARCHY
ROOT newVegas:Hips
{
	OFFSET 0.000000 96.479958 0.000000
	CHANNELS 6 Xposition Yposition Zposition Xrotation Yrotation Zrotation
	JOINT newVegas:Pelvis
	{
		OFFSET 0.000000 0.000000 0.000000
		CHANNELS 3 Xrotation Yrotation Zrotation
		JOINT newVegas:LeftUpLeg
		{
			OFFSET 18.735201 -5.666702 -4.541200
			CHANNELS 3 Xrotation Yrotation Zrotation
			JOINT newVegas:LeftLeg
			{
				OFFSET -0.021200 -31.938179 0.493100
				CHANNELS 3 Xrotation Yrotation Zrotation
				JOINT newVegas:LeftFoot
				{
					OFFSET 0.021200 -31.938179 -4.336299
					CHANNELS 3 Xrotation Yrotation Zrotation
					JOINT newVegas:LeftToeBase
					{
						OFFSET 0.943001 -26.722000 15.023500
						CHANNELS 3 Xrotation Yrotation Zrotation
						End Site
						{
							OFFSET 0.000000 30.670183 0.000000
						}
					}
				}
				JOINT newVegas:Left_PantLeg
				{
					OFFSET 0.663870 -9.044666 -1.108900
					CHANNELS 3 Xrotation Yrotation Zrotation
					End Site
					{
						OFFSET 1.415995 20.635357 0.000000
					}
				}
			}
		}
		JOINT newVegas:RightUpLeg
		{
			OFFSET -18.735201 -5.666702 -4.541200
			CHANNELS 3 Xrotation Yrotation Zrotation
			JOINT newVegas:RightLeg
			{
				OFFSET 0.018946 -31.938133 0.493100
				CHANNELS 3 Xrotation Yrotation Zrotation
				JOINT newVegas:RightFoot
				{
					OFFSET -0.018946 -31.938126 -4.336299
					CHANNELS 3 Xrotation Yrotation Zrotation
					JOINT newVegas:RightToeBase
					{
						OFFSET -0.943001 -26.722004 15.023500
						CHANNELS 3 Xrotation Yrotation Zrotation
						End Site
						{
							OFFSET 0.000000 30.670187 0.000000
						}
					}
				}
				JOINT newVegas:Right_PantLeg
				{
					OFFSET -0.661674 -9.044716 -1.108900
					CHANNELS 3 Xrotation Yrotation Zrotation
					End Site
					{
						OFFSET -1.415958 20.635269 0.000000
					}
				}
			}
		}
	}
	JOINT newVegas:Spine
	{
		OFFSET 0.000000 10.199997 -0.299500
		CHANNELS 3 Xrotation Yrotation Zrotation
		JOINT newVegas:Spine1
		{
			OFFSET 0.000000 11.900002 -1.516600
			CHANNELS 3 Xrotation Yrotation Zrotation
			JOINT newVegas:Spine2
			{
				OFFSET 0.000000 13.600006 -2.842500
				CHANNELS 3 Xrotation Yrotation Zrotation
				JOINT newVegas:Neck
				{
					OFFSET 0.000000 9.624100 -2.890100
					CHANNELS 3 Xrotation Yrotation Zrotation
					JOINT newVegas:Head
					{
						OFFSET 0.000000 14.068802 -1.351900
						CHANNELS 3 Xrotation Yrotation Zrotation
						JOINT newVegas:Hair_Back
						{
							OFFSET 0.000000 3.231903 -17.524799
							CHANNELS 3 Xrotation Yrotation Zrotation
							End Site
							{
								OFFSET 0.000000 19.849884 0.000000
							}
						}
						JOINT newVegas:Hair_Front
						{
							OFFSET 0.000000 31.260406 4.573800
							CHANNELS 3 Xrotation Yrotation Zrotation
							JOINT newVegas:Hair_Front1
							{
								OFFSET 0.000000 2.284103 11.993300
								CHANNELS 3 Xrotation Yrotation Zrotation
								JOINT newVegas:Hair_Front2
								{
									OFFSET 0.000000 2.284103 11.993300
									CHANNELS 3 Xrotation Yrotation Zrotation
									End Site
									{
										OFFSET 0.000000 12.208862 0.000000
									}
								}
							}
						}
						JOINT newVegas:Jowel
						{
							OFFSET 0.000000 -7.458206 6.864100
							CHANNELS 3 Xrotation Yrotation Zrotation
							End Site
							{
								OFFSET 0.000000 19.849884 0.000000
							}
						}
					}
				}
				JOINT newVegas:LeftShoulder
				{
					OFFSET 15.263000 10.923401 -0.547700
					CHANNELS 3 Xrotation Yrotation Zrotation
					JOINT newVegas:LeftArm
					{
						OFFSET 25.438599 -2.830597 -13.032500
						CHANNELS 3 Xrotation Yrotation Zrotation
						JOINT newVegas:LeftForeArm
						{
							OFFSET 29.960503 0.000000 0.000000
							CHANNELS 3 Xrotation Yrotation Zrotation
							JOINT newVegas:LeftHand
							{
								OFFSET 27.849251 0.000000 0.000000
								CHANNELS 3 Xrotation Yrotation Zrotation
								JOINT newVegas:LeftHandThumb1
								{
									OFFSET 4.487587 -3.305161 6.305391
									CHANNELS 3 Xrotation Yrotation Zrotation
									JOINT newVegas:LeftHandThumb2
									{
										OFFSET 5.480453 -3.164139 3.164143
										CHANNELS 3 Xrotation Yrotation Zrotation
										JOINT newVegas:LeftHandThumb3
										{
											OFFSET 5.159721 -2.978973 2.978967
											CHANNELS 3 Xrotation Yrotation Zrotation
											End Site
											{
												OFFSET 2.494507 5.926697 1.738678
											}
										}
									}
								}
								JOINT newVegas:LeftHandIndex1
								{
									OFFSET 18.578728 -0.527832 5.208049
									CHANNELS 3 Xrotation Yrotation Zrotation
									JOINT newVegas:LeftHandIndex2
									{
										OFFSET 3.192009 0.000000 0.000000
										CHANNELS 3 Xrotation Yrotation Zrotation
										JOINT newVegas:LeftHandIndex3
										{
											OFFSET 3.835129 0.000000 0.000000
											CHANNELS 3 Xrotation Yrotation Zrotation
											End Site
											{
												OFFSET -0.034599 3.816971 0.371180
											}
										}
									}
								}
								JOINT newVegas:LeftHandMiddle1
								{
									OFFSET 18.476105 0.000000 0.000000
									CHANNELS 3 Xrotation Yrotation Zrotation
									JOINT newVegas:LeftHandMiddle2
									{
										OFFSET 3.324875 0.000000 0.000000
										CHANNELS 3 Xrotation Yrotation Zrotation
										JOINT newVegas:LeftHandMiddle3
										{
											OFFSET 4.596550 0.000000 0.000000
											CHANNELS 3 Xrotation Yrotation Zrotation
											End Site
											{
												OFFSET 0.057701 4.578827 0.399218
											}
										}
									}
								}
								JOINT newVegas:LeftHandRing1
								{
									OFFSET 17.732719 0.121887 -4.201567
									CHANNELS 3 Xrotation Yrotation Zrotation
									JOINT newVegas:LeftHandRing2
									{
										OFFSET 2.733170 0.000000 0.000000
										CHANNELS 3 Xrotation Yrotation Zrotation
										JOINT newVegas:LeftHandRing3
										{
											OFFSET 3.178268 0.000000 0.000000
											CHANNELS 3 Xrotation Yrotation Zrotation
											End Site
											{
												OFFSET 0.119102 3.170624 0.185394
											}
										}
									}
								}
								JOINT newVegas:LeftHandPinky1
								{
									OFFSET 15.989624 -0.606689 -7.535461
									CHANNELS 3 Xrotation Yrotation Zrotation
									JOINT newVegas:LeftHandPinky2
									{
										OFFSET 2.538986 0.000000 0.000000
										CHANNELS 3 Xrotation Yrotation Zrotation
										JOINT newVegas:LeftHandPinky3
										{
											OFFSET 2.593102 0.000000 0.000000
											CHANNELS 3 Xrotation Yrotation Zrotation
											End Site
											{
												OFFSET -0.150902 2.584198 0.152708
											}
										}
									}
								}
							}
							JOINT newVegas:Left_Sleeve
							{
								OFFSET 0.267448 -0.649796 0.577675
								CHANNELS 3 Xrotation Yrotation Zrotation
								End Site
								{
									OFFSET 0.000000 15.991241 0.000000
								}
							}
							JOINT newVegas:Left_CapeC
							{
								OFFSET 15.715958 -8.608795 -6.935905
								CHANNELS 3 Xrotation Yrotation Zrotation
								JOINT newVegas:Left_CapeC1
								{
									OFFSET 0.000000 -8.688499 0.000000
									CHANNELS 3 Xrotation Yrotation Zrotation
									End Site
									{
										OFFSET 0.000000 8.688499 0.000000
									}
								}
							}
						}
						JOINT newVegas:Left_CapeB
						{
							OFFSET 26.118385 -8.608795 -7.079235
							CHANNELS 3 Xrotation Yrotation Zrotation
							JOINT newVegas:Left_CapeB1
							{
								OFFSET 0.000000 -8.688499 0.000000
								CHANNELS 3 Xrotation Yrotation Zrotation
								End Site
								{
									OFFSET 0.000000 8.688499 0.000000
								}
							}
						}
						JOINT newVegas:Left_CapeA
						{
							OFFSET 5.115639 -8.608795 -10.395809
							CHANNELS 3 Xrotation Yrotation Zrotation
							JOINT newVegas:Left_CapeA1
							{
								OFFSET 0.000000 -8.688499 0.000000
								CHANNELS 3 Xrotation Yrotation Zrotation
								End Site
								{
									OFFSET 0.000000 8.688499 0.000000
								}
							}
						}
					}
				}
				JOINT newVegas:RightShoulder
				{
					OFFSET -15.263000 10.923401 -0.547700
					CHANNELS 3 Xrotation Yrotation Zrotation
					JOINT newVegas:RightArm
					{
						OFFSET -25.438599 -2.830597 -13.032500
						CHANNELS 3 Xrotation Yrotation Zrotation
						JOINT newVegas:RightForeArm
						{
							OFFSET -29.960503 0.000000 0.000000
							CHANNELS 3 Xrotation Yrotation Zrotation
							JOINT newVegas:RightHand
							{
								OFFSET -27.849251 0.000000 0.000000
								CHANNELS 3 Xrotation Yrotation Zrotation
								JOINT newVegas:RightHandThumb1
								{
									OFFSET -4.487587 -3.305161 6.305391
									CHANNELS 3 Xrotation Yrotation Zrotation
									JOINT newVegas:RightHandThumb2
									{
										OFFSET -5.480453 -3.164139 3.164143
										CHANNELS 3 Xrotation Yrotation Zrotation
										JOINT newVegas:RightHandThumb3
										{
											OFFSET -5.159721 -2.978973 2.978967
											CHANNELS 3 Xrotation Yrotation Zrotation
											End Site
											{
												OFFSET -2.494507 5.926697 1.738678
											}
										}
									}
								}
								JOINT newVegas:RightHandIndex1
								{
									OFFSET -18.578728 -0.527832 5.208049
									CHANNELS 3 Xrotation Yrotation Zrotation
									JOINT newVegas:RightHandIndex2
									{
										OFFSET -3.192009 0.000000 0.000000
										CHANNELS 3 Xrotation Yrotation Zrotation
										JOINT newVegas:RightHandIndex3
										{
											OFFSET -3.835129 0.000000 0.000000
											CHANNELS 3 Xrotation Yrotation Zrotation
											End Site
											{
												OFFSET 0.034599 3.816971 0.371180
											}
										}
									}
								}
								JOINT newVegas:RightHandMiddle1
								{
									OFFSET -18.476105 0.000000 0.000000
									CHANNELS 3 Xrotation Yrotation Zrotation
									JOINT newVegas:RightHandMiddle2
									{
										OFFSET -3.324875 0.000000 0.000000
										CHANNELS 3 Xrotation Yrotation Zrotation
										JOINT newVegas:RightHandMiddle3
										{
											OFFSET -4.596550 0.000000 0.000000
											CHANNELS 3 Xrotation Yrotation Zrotation
											End Site
											{
												OFFSET -0.057701 4.578827 0.399218
											}
										}
									}
								}
								JOINT newVegas:RightHandRing1
								{
									OFFSET -17.732719 0.121887 -4.201567
									CHANNELS 3 Xrotation Yrotation Zrotation
									JOINT newVegas:RightHandRing2
									{
										OFFSET -2.733170 0.000000 0.000000
										CHANNELS 3 Xrotation Yrotation Zrotation
										JOINT newVegas:RightHandRing3
										{
											OFFSET -3.178268 0.000000 0.000000
											CHANNELS 3 Xrotation Yrotation Zrotation
											End Site
											{
												OFFSET -0.119102 3.170624 0.185394
											}
										}
									}
								}
								JOINT newVegas:RightHandPinky1
								{
									OFFSET -15.989624 -0.606689 -7.535461
									CHANNELS 3 Xrotation Yrotation Zrotation
									JOINT newVegas:RightHandPinky2
									{
										OFFSET -2.538986 0.000000 0.000000
										CHANNELS 3 Xrotation Yrotation Zrotation
										JOINT newVegas:RightHandPinky3
										{
											OFFSET -2.593102 0.000000 0.000000
											CHANNELS 3 Xrotation Yrotation Zrotation
											End Site
											{
												OFFSET 0.150902 2.584198 0.152708
											}
										}
									}
								}
							}
							JOINT newVegas:Right_CapeC
							{
								OFFSET -15.715958 -8.608795 -6.935905
								CHANNELS 3 Xrotation Yrotation Zrotation
								JOINT newVegas:Right_CapeC1
								{
									OFFSET 0.000000 -8.688499 0.000000
									CHANNELS 3 Xrotation Yrotation Zrotation
									End Site
									{
										OFFSET 0.000000 8.688499 0.000000
									}
								}
							}
							JOINT newVegas:Right_Sleeve
							{
								OFFSET -0.267448 -0.649994 0.577675
								CHANNELS 3 Xrotation Yrotation Zrotation
								End Site
								{
									OFFSET 0.000000 15.991302 0.000000
								}
							}
						}
						JOINT newVegas:Right_CapeA
						{
							OFFSET -5.115540 -8.608795 -10.395824
							CHANNELS 3 Xrotation Yrotation Zrotation
							JOINT newVegas:Right_CapeA1
							{
								OFFSET 0.000000 -8.688499 0.000000
								CHANNELS 3 Xrotation Yrotation Zrotation
								End Site
								{
									OFFSET 0.000000 8.688499 0.000000
								}
							}
						}
						JOINT newVegas:Right_CapeB
						{
							OFFSET -26.118187 -8.608795 -7.079266
							CHANNELS 3 Xrotation Yrotation Zrotation
							JOINT newVegas:Right_CapeB1
							{
								OFFSET 0.000000 -8.688499 0.000000
								CHANNELS 3 Xrotation Yrotation Zrotation
								End Site
								{
									OFFSET 0.000000 8.688499 0.000000
								}
							}
						}
					}
				}
				JOINT newVegas:Left_Collar
				{
					OFFSET 18.625099 8.655502 8.828100
					CHANNELS 3 Xrotation Yrotation Zrotation
					JOINT newVegas:Left_Collar1
					{
						OFFSET 14.783401 10.540405 -1.259500
						CHANNELS 3 Xrotation Yrotation Zrotation
						End Site
						{
							OFFSET 0.000000 18.199875 0.000000
						}
					}
				}
				JOINT newVegas:Collar_Back
				{
					OFFSET 0.000000 15.630707 -20.132601
					CHANNELS 3 Xrotation Yrotation Zrotation
					End Site
					{
						OFFSET 0.000000 22.523010 0.000000
					}
				}
				JOINT newVegas:Left_Peck
				{
					OFFSET 17.239599 -5.132599 25.482599
					CHANNELS 3 Xrotation Yrotation Zrotation
					End Site
					{
						OFFSET 0.000000 22.523010 0.000000
					}
				}
				JOINT newVegas:Right_Peck
				{
					OFFSET -17.239599 -5.132202 25.482599
					CHANNELS 3 Xrotation Yrotation Zrotation
					End Site
					{
						OFFSET 0.000000 22.523010 0.000000
					}
				}
				JOINT newVegas:Right_Collar
				{
					OFFSET -18.625099 8.655792 8.828100
					CHANNELS 3 Xrotation Yrotation Zrotation
					JOINT newVegas:Right_Collar1
					{
						OFFSET -14.783401 10.539993 -1.259500
						CHANNELS 3 Xrotation Yrotation Zrotation
						End Site
						{
							OFFSET 0.000000 18.199631 0.000000
						}
					}
				}
			}
		}
		JOINT newVegas:Belly
		{
			OFFSET 0.000000 -6.540398 9.014299
			CHANNELS 3 Xrotation Yrotation Zrotation
			End Site
			{
				OFFSET 0.000000 11.566666 0.000000
			}
		}
	}
	JOINT newVegas:ElvisFacialAnim_Joint
	{
		OFFSET 1.000000 -95.330101 -8.825800
		CHANNELS 3 Xrotation Yrotation Zrotation
		End Site
		{
			OFFSET 0.000000 35.315800 0.000000
		}
	}
}
MOTION
Frames: 4
Frame Time: 0.033333
1.281782 86.803894 148.965607 -1.385992 4.018794 -0.176339 -0.000000 -0.000000 -0.000000 -21.841237 0.582987 7.608677 62.563822 -5.287553 -2.582087 27.620441 0.306880 -1.250556 -0.000001 -0.000000 0.000000 0.000001 -0.000000 0.000001 -43.199078 -7.906213 -3.009994 47.309216 -2.204778 -4.973308 -3.513537 0.399320 1.977064 -0.000000 -0.000001 -0.000000 -0.000000 -0.000000 -0.000000 21.627820 -11.171090 5.407151 1.387947 -3.357040 -0.247130 1.387209 -3.338622 -0.153571 1.502927 0.290654 -0.772493 1.502900 0.290655 -0.772485 0.000000 0.000000 -0.000000 1.502997 0.290662 -0.772494 1.503003 0.290661 -0.772493 -0.000002 -0.000000 -0.000000 0.000000 0.000000 -0.000000 -0.796604 -16.837641 2.684176 -17.810932 -14.039901 -43.501287 -98.830850 -61.038628 -94.539531 -0.324977 -3.267279 -1.006793 4.766508 -0.870663 -14.442467 15.966353 12.761308 8.078538 0.000000 0.000000 -0.000006 -3.787183 -7.955044 -81.995799 0.007345 -4.388811 -67.284262 0.000001 0.000002 -0.000001 -5.534893 2.234459 -87.865418 -0.069281 -4.897875 -76.382846 -0.000000 -0.000001 0.000002 -4.690960 3.976278 -91.150063 -1.112611 -0.687492 -61.914975 -0.000001 -0.000001 0.000003 -9.131121 7.984495 -85.716429 -0.034838 -0.065516 -73.841817 -0.000001 0.000000 0.000001 -0.000000 0.000001 0.000002 -0.000000 0.000001 0.000002 -0.000000 0.000001 0.000002 0.000001 -0.000003 -0.000000 0.000002 -0.000003 -0.000003 0.000001 -0.000003 -0.000000 0.000000 -0.000003 -0.000000 0.957812 -4.812028 1.482091 6.644352 0.054322 52.039266 -90.063885 69.420123 84.312415 -1.636593 9.977838 15.790351 24.918367 -21.323378 30.343047 9.041938 8.262101 -18.001805 0.000003 0.000002 -0.000002 -0.329742 -2.697805 60.334961 0.002807 4.398961 66.820178 0.000001 0.000001 0.000001 -1.483361 -0.014471 68.040999 -0.081235 4.899383 84.483382 -0.000002 -0.000001 -0.000004 0.495299 -4.324433 79.076460 -0.707708 1.131084 73.270964 -0.000001 -0.000003 0.000002 -4.138603 0.108071 86.942229 -0.024012 0.050607 54.433845 0.000000 0.000002 -0.000000 -0.000002 0.000002 -0.000000 -0.000002 0.000000 -0.000003 -0.000002 0.000002 -0.000000 0.000001 -0.000003 -0.000005 0.000001 -0.000002 -0.000003 0.000001 -0.000003 -0.000005 0.000001 -0.000002 -0.000002 0.000001 0.000001 -0.000000 0.000001 0.000001 -0.000000 0.000001 0.000001 -0.000000 0.000001 0.000001 -0.000000 0.000001 0.000001 -0.000000 0.000001 0.000001 -0.000000 0.000001 0.000001 -0.000000 -0.000000 -0.000000 -0.000000 -0.000000 -0.000000 -0.000000 
0.779190 88.967514 153.751312 -1.349929 2.718208 0.358776 -0.000000 0.000000 0.000000 -26.259205 3.890745 8.298335 64.475012 -5.253263 -2.808245 19.007824 1.510845 -0.021331 -0.000003 0.000000 -0.000000 -0.000001 -0.000001 0.000001 -36.794434 -7.358190 -2.273091 44.978763 -1.254277 -4.684574 -8.365342 0.326323 1.776184 -0.000000 -0.000000 -0.000000 0.000001 0.000001 -0.000000 21.454075 -10.255398 4.353626 1.439279 -3.023432 -0.330085 1.443445 -3.001005 -0.244076 1.590122 0.276374 -0.779941 1.590141 0.276364 -0.779939 0.000001 0.000000 0.000000 1.590205 0.276377 -0.779945 1.590062 0.276351 -0.779938 -0.000000 0.000000 -0.000001 0.000001 0.000000 0.000000 -0.932438 -15.862612 1.692458 -18.563341 -14.499889 -44.665882 -94.617490 -61.754575 -89.790678 -0.251982 -3.974257 -1.281435 4.766503 -0.870660 -14.442467 15.956003 12.740561 8.192321 -0.000004 -0.000003 -0.000012 -3.755889 -7.905804 -81.948739 0.006804 -4.388789 -67.331035 0.000000 0.000001 -0.000000 -5.517364 2.304835 -87.700257 -0.068988 -4.897662 -76.444222 0.000000 -0.000001 -0.000002 -4.643171 3.967000 -91.046613 -1.111054 -0.684847 -62.079869 -0.000001 -0.000001 0.000002 -9.062848 8.070572 -85.763441 -0.034628 -0.064904 -73.974589 -0.000000 -0.000000 0.000004 -0.000001 0.000000 0.000003 -0.000001 0.000000 0.000003 -0.000001 -0.000000 0.000002 -0.000002 -0.000003 0.000003 -0.000002 -0.000003 0.000001 -0.000002 -0.000003 0.000003 -0.000003 -0.000003 0.000002 0.982520 -3.382811 1.781796 5.781456 0.540893 52.020715 -86.704600 69.229841 81.047537 -1.502447 10.116077 15.304576 24.918364 -21.323376 30.343054 9.041932 8.262106 -18.001804 -0.000001 -0.000002 -0.000002 -0.212072 -2.860254 60.858638 0.005772 4.396282 66.835266 0.000001 -0.000001 0.000004 -1.387137 -0.053653 68.056012 -0.082838 4.900174 84.473901 0.000002 -0.000001 0.000000 0.637117 -4.398925 79.102040 -0.711499 1.132738 73.249121 0.000003 -0.000001 0.000002 -4.082191 0.105019 86.951921 -0.022600 0.048154 54.469263 0.000002 0.000005 0.000000 -0.000002 0.000000 0.000001 -0.000002 0.000000 0.000000 -0.000002 0.000000 0.000001 -0.000000 -0.000001 -0.000001 -0.000001 0.000000 0.000000 -0.000000 -0.000001 -0.000001 -0.000001 0.000000 0.000002 0.000002 -0.000000 0.000000 0.000002 -0.000000 0.000000 0.000002 -0.000000 0.000000 0.000002 -0.000000 0.000000 0.000002 -0.000000 0.000000 0.000002 -0.000000 0.000000 0.000002 -0.000000 0.000000 0.000001 0.000000 0.000000 -0.000000 0.000000 0.000000 
0.342203 91.011345 158.512115 -1.229607 1.441659 1.016054 0.000000 -0.000000 -0.000000 -29.575802 7.662535 8.982575 63.717667 -5.840733 -3.056041 8.627916 1.365674 0.119311 0.000003 0.000000 -0.000001 -0.000000 0.000000 -0.000001 -30.280220 -6.116238 -2.232446 41.228063 0.014207 -4.255041 -11.364888 -0.057259 2.728730 -0.000000 -0.000000 -0.000000 -0.000000 0.000001 -0.000001 20.997537 -9.449131 3.252032 1.468012 -2.709867 -0.424831 1.472927 -2.683143 -0.348072 1.655252 0.268973 -0.771096 1.655232 0.268968 -0.771093 -0.000001 0.000000 -0.000000 1.655313 0.268974 -0.771097 1.655309 0.268970 -0.771096 -0.000001 -0.000001 -0.000000 -0.000001 0.000000 -0.000000 -1.038629 -14.958819 0.742499 -19.170398 -14.107320 -45.791593 -90.057813 -62.095333 -84.872081 -0.183665 -4.844240 -1.650799 4.766500 -0.870659 -14.442466 15.883682 12.711014 8.438648 0.000003 -0.000003 -0.000003 -3.699952 -7.861893 -81.692102 0.005978 -4.389375 -67.380868 -0.000001 0.000003 -0.000001 -5.502198 2.366329 -87.279333 -0.069361 -4.897877 -76.518582 0.000000 -0.000000 0.000001 -4.580829 3.945163 -90.783787 -1.109722 -0.682583 -62.217880 -0.000001 0.000001 0.000000 -8.975604 8.168113 -85.775886 -0.036555 -0.066594 -74.075915 -0.000000 -0.000003 -0.000001 0.000000 0.000000 0.000001 0.000000 0.000000 0.000001 0.000001 0.000000 0.000001 0.000002 -0.000001 0.000001 0.000002 0.000000 0.000001 0.000002 -0.000001 0.000001 0.000001 -0.000000 0.000001 1.067017 -2.026840 2.034267 4.800722 1.064078 51.860288 -83.744266 68.748087 78.208002 -1.377337 10.223170 14.793985 24.918367 -21.323383 30.343054 9.041931 8.262101 -18.001799 0.000002 -0.000001 -0.000002 -0.112410 -2.983173 61.275799 0.007488 4.394692 66.792181 -0.000001 0.000000 0.000001 -1.290134 -0.096054 68.125789 -0.083071 4.900309 84.472433 0.000000 0.000002 -0.000003 0.777936 -4.501300 79.142638 -0.713848 1.133781 73.235508 0.000001 -0.000001 -0.000000 -4.013237 0.105846 86.891003 -0.022937 0.048044 54.457805 -0.000000 -0.000000 -0.000001 -0.000003 0.000000 0.000001 -0.000003 -0.000001 0.000001 -0.000003 0.000000 0.000001 -0.000001 -0.000001 -0.000003 -0.000002 -0.000001 -0.000001 -0.000001 -0.000001 -0.000003 -0.000002 -0.000001 0.000000 0.000001 0.000000 -0.000000 0.000001 0.000000 -0.000000 0.000001 0.000000 -0.000000 0.000001 0.000000 -0.000000 0.000001 0.000000 -0.000000 0.000001 0.000000 -0.000000 0.000001 0.000000 -0.000000 0.000002 0.000000 -0.000000 0.000000 -0.000000 -0.000000 
-0.011611 92.542641 163.184799 -1.158493 0.064915 1.375447 0.000000 -0.000000 -0.000000 -31.834477 11.033914 9.427420 59.846398 -7.444659 -3.399149 0.727788 0.198991 -0.826578 -0.000001 0.000001 0.000000 -0.000002 -0.000000 -0.000000 -23.978142 -5.058412 -2.257426 37.212879 1.472024 -3.804864 -13.717832 -0.502756 3.512301 0.000000 0.000000 -0.000000 0.000001 0.000000 -0.000000 20.539408 -8.667351 2.358490 1.473320 -2.416877 -0.531223 1.488720 -2.385879 -0.464018 1.721739 0.256349 -0.736163 1.721724 0.256351 -0.736163 -0.000001 0.000001 -0.000000 1.721728 0.256354 -0.736163 1.721796 0.256374 -0.736168 -0.000001 0.000001 -0.000000 -0.000001 0.000001 -0.000000 -1.062425 -14.212012 0.092166 -19.635967 -13.172144 -46.867942 -85.042241 -62.025658 -79.902442 -0.152909 -6.024795 -2.180787 4.766501 -0.870661 -14.442466 15.732335 12.674832 8.828573 -0.000000 -0.000002 -0.000003 -3.609605 -7.817620 -81.260516 0.007116 -4.389018 -67.459552 0.000000 0.000001 -0.000001 -5.482361 2.419639 -86.651618 -0.069511 -4.897911 -76.607040 0.000000 -0.000000 0.000000 -4.486637 3.914749 -90.411617 -1.108803 -0.681006 -62.311085 -0.000001 -0.000001 0.000001 -8.882722 8.262645 -85.751215 -0.033877 -0.068665 -74.106111 -0.000000 -0.000003 -0.000001 -0.000000 0.000000 -0.000001 -0.000000 0.000000 -0.000001 0.000000 0.000000 -0.000001 -0.000002 0.000002 0.000001 -0.000001 0.000002 -0.000003 -0.000002 0.000002 0.000001 -0.000003 0.000002 0.000001 1.206611 -0.842858 2.191715 3.756636 1.343742 51.662239 -81.679466 68.182527 76.293534 -1.265517 10.314929 14.317121 24.918366 -21.323379 30.343054 9.041933 8.262102 -18.001800 0.000003 0.000001 -0.000000 -0.063504 -3.017257 61.424397 0.007458 4.394723 66.609139 -0.000002 0.000001 0.000003 -1.222268 -0.130775 68.273690 -0.078744 4.898102 84.498456 0.000001 0.000001 0.000000 0.882093 -4.623023 79.192676 -0.711470 1.132728 73.249257 0.000003 0.000002 -0.000001 -3.961855 0.114164 86.768107 -0.024836 0.052453 54.415707 0.000001 0.000003 0.000002 0.000000 -0.000000 0.000004 0.000001 -0.000001 0.000002 0.000000 -0.000000 0.000004 -0.000001 0.000003 -0.000000 -0.000002 0.000003 0.000002 -0.000001 0.000003 -0.000000 -0.000001 0.000003 0.000003 -0.000000 0.000000 -0.000000 -0.000000 0.000000 -0.000000 -0.000000 0.000000 -0.000000 -0.000000 0.000000 -0.000000 -0.000000 0.000000 -0.000000 -0.000000 0.000000 -0.000000 -0.000000 0.000000 -0.000000 -0.000000 0.000001 -0.000000 0.000000 -0.000000 -0.000000 
